<?xml version="1.0" standalone="no"?>
<!DOCTYPE svg PUBLIC "-//W3C//DTD SVG 20010904//EN"
 "http://www.w3.org/TR/2001/REC-SVG-20010904/DTD/svg10.dtd">
<svg version="1.0" xmlns="http://www.w3.org/2000/svg"
 width="512.000000pt" height="512.000000pt" viewBox="0 0 512.000000 512.000000"
 preserveAspectRatio="xMidYMid meet">
<metadata>
Created by potrace 1.16, written by Peter Selinger 2001-2019
</metadata>
<g transform="translate(0.000000,512.000000) scale(0.100000,-0.100000)"
fill="#000000" stroke="none">
<path d="M785 4645 c-23 -7 -64 -24 -91 -38 -28 -14 -60 -24 -70 -21 -15 4
-43 -16 -104 -74 l-85 -80 22 -24 c20 -21 21 -29 13 -58 -6 -19 -10 -62 -10
-95 0 -106 27 -146 226 -343 119 -118 181 -186 194 -215 10 -23 25 -51 34 -62
15 -20 16 -19 50 20 33 39 34 39 62 25 34 -19 206 -173 297 -268 l69 -72 76
21 c169 44 313 110 362 165 l29 33 47 -21 c41 -18 58 -20 133 -14 254 21 349
73 387 212 23 86 44 82 44 -7 0 -70 -53 -145 -127 -183 -80 -40 -343 -76 -419
-57 -41 11 -47 10 -78 -14 -67 -51 -336 -155 -401 -155 -13 0 -26 -4 -30 -9
-3 -5 31 -42 75 -82 61 -55 80 -79 80 -98 -1 -40 -23 -63 -54 -55 -23 5 -26 3
-26 -19 0 -14 11 -39 25 -55 26 -31 32 -66 15 -92 -8 -12 -25 0 -89 64 -44 44
-78 82 -76 85 3 2 24 -9 48 -26 102 -72 89 -54 -30 43 -175 141 -465 304 -540
304 -49 0 -95 -29 -116 -73 -31 -65 -16 -120 44 -172 38 -32 72 -29 132 11 55
36 79 79 74 132 -5 42 -4 42 14 26 35 -31 24 -73 -32 -130 l-51 -51 68 -8 c37
-4 78 -11 91 -16 42 -16 24 2 -23 22 l-46 21 32 33 c28 29 36 32 53 23 17 -9
19 -8 14 6 -4 9 -4 16 0 16 19 0 256 -149 260 -163 9 -30 98 -133 134 -154 29
-17 37 -45 20 -71 -6 -10 -21 0 -60 40 l-53 53 40 -55 c93 -128 105 -156 107
-255 1 -95 7 -119 61 -256 39 -100 41 -125 14 -179 -39 -76 -15 -169 59 -234
31 -28 34 -15 11 50 -19 54 -20 72 -14 211 4 92 11 159 19 169 9 13 11 4 7
-46 -4 -53 -2 -66 14 -77 37 -27 48 -7 14 27 -24 24 -25 59 -6 125 13 42 13
53 0 92 -14 40 -52 113 -59 113 -2 0 0 -15 5 -33 9 -42 1 -99 -14 -94 -22 7
-47 67 -52 128 l-6 64 64 23 c34 13 77 29 93 37 53 23 188 64 275 84 166 39
316 55 525 55 356 0 613 -51 900 -181 l101 -46 -7 -62 c-7 -54 -44 -175 -54
-175 -11 0 -29 51 -40 114 l-12 71 -33 -65 c-30 -59 -32 -69 -25 -120 12 -86
10 -118 -9 -139 -9 -10 -13 -22 -8 -25 5 -3 17 3 27 14 14 15 17 31 13 75 -3
30 -3 55 -2 55 2 0 9 -10 15 -22 19 -35 32 -180 30 -323 -2 -103 1 -134 13
-150 15 -19 15 -19 16 11 0 18 12 57 26 88 34 74 34 128 0 186 -14 25 -26 54
-26 64 0 11 16 48 35 82 52 93 65 135 81 269 16 138 10 396 -12 430 -6 11 -15
43 -18 70 -8 61 12 92 61 97 42 4 47 -13 8 -24 -44 -12 -69 -34 -61 -54 10
-25 65 -10 98 26 83 91 476 270 592 270 52 0 119 -40 139 -82 29 -61 30 -99 5
-147 -39 -75 -61 -85 -201 -92 -138 -6 -166 -15 -387 -123 -69 -33 -129 -62
-135 -65 -5 -2 14 15 44 38 30 22 50 41 45 41 -24 0 -127 -87 -118 -101 2 -4
0 -10 -6 -14 -11 -7 -13 -45 -4 -69 5 -12 21 -2 73 45 36 34 78 70 93 80 l27
20 -10 -31 c-6 -16 -34 -49 -61 -73 -90 -75 -115 -105 -122 -142 -13 -67 17
-115 71 -115 37 0 73 29 73 58 0 22 -25 47 -58 57 -40 12 -18 52 81 153 137
138 273 202 429 202 81 0 134 22 172 73 25 32 49 114 42 139 -2 7 -7 25 -10
40 -8 34 -59 94 -97 114 -45 23 -122 17 -223 -16 -113 -38 -294 -124 -373
-178 l-60 -41 -26 40 -26 40 24 11 c14 6 25 14 25 17 0 3 -42 21 -93 39 -130
48 -257 109 -289 139 -25 24 -34 26 -105 24 -100 -2 -300 31 -358 59 -71 35
-125 123 -125 206 0 51 18 50 40 -3 47 -112 65 -137 122 -166 93 -48 327 -74
388 -42 26 14 29 13 35 -3 14 -45 130 -114 297 -178 l98 -37 117 110 c163 152
266 243 277 243 4 0 25 -14 46 -30 l39 -31 15 23 c9 12 16 28 16 36 0 20 -39
92 -72 134 -27 33 -31 68 -7 53 19 -12 8 25 -16 54 -24 27 -104 92 -165 132
l-24 16 21 26 c17 22 22 24 27 11 4 -11 12 -13 28 -8 20 6 21 5 9 -10 -16 -19
-17 -18 29 -41 64 -33 148 -95 153 -112 4 -17 4 -17 11 -1 5 10 1 31 -8 50
-10 20 -14 43 -11 60 10 42 -3 68 -42 84 -32 14 -37 14 -54 -2 -22 -20 -9 -35
22 -27 26 7 48 -13 42 -37 -6 -21 -23 -28 -23 -9 0 5 -4 8 -9 5 -5 -3 -14 1
-21 9 -7 8 -22 15 -35 15 -31 0 -28 28 7 53 15 11 28 26 28 33 0 19 24 34 73
43 36 6 44 5 40 -5 -3 -8 -13 -14 -22 -14 -26 0 -57 -25 -42 -34 7 -5 20 -1
31 9 17 15 18 15 16 -1 0 -11 9 -22 26 -28 41 -15 60 6 56 63 l-3 46 -50 -3
c-47 -2 -49 -1 -30 14 13 10 31 14 53 10 17 -2 32 -1 32 4 0 11 -57 23 -71 15
-7 -5 -10 -1 -7 11 4 20 26 22 79 9 22 -6 30 -1 49 25 l23 33 -69 -7 c-87 -10
-111 -25 -126 -81 -9 -34 -19 -48 -42 -59 -55 -27 -54 15 3 97 42 61 69 83 83
69 17 -17 39 -15 89 8 24 11 58 20 74 21 28 1 27 2 -20 24 -85 40 -95 40 -156
0 l-54 -36 40 35 c22 20 48 38 58 42 23 7 21 19 -5 32 -21 9 -18 11 20 11 23
1 59 -6 79 -14 53 -22 86 -19 128 15 30 24 41 28 57 19 19 -10 19 -12 -13 -46
-34 -36 -28 -36 24 0 21 14 31 17 40 8 8 -8 0 -23 -33 -56 l-43 -44 33 -63
c18 -35 42 -75 52 -90 13 -20 16 -33 10 -44 -7 -13 -19 2 -57 75 -48 89 -65
109 -65 74 -1 -23 -31 -62 -37 -47 -2 6 -10 20 -18 30 -14 18 -14 18 -15 -8 0
-42 -11 -59 -44 -74 l-31 -13 33 -7 c34 -7 42 -32 13 -42 -8 -3 -11 0 -8 5 3
5 -4 9 -15 9 -15 -1 -24 7 -29 24 -8 29 -11 13 -9 -51 2 -72 -44 -101 -99 -63
-22 16 -23 16 -12 -4 6 -12 16 -24 22 -27 5 -4 8 -19 4 -34 -3 -16 1 -40 11
-60 24 -48 10 -106 -26 -106 -34 0 -38 -40 -11 -94 12 -22 21 -52 21 -66 0
-14 1 -25 3 -25 1 0 92 89 202 198 226 222 245 250 245 354 0 36 -5 80 -11 98
-11 30 -10 34 16 54 l27 22 -92 87 c-70 66 -96 85 -106 76 -9 -7 -24 -4 -55
12 -55 27 -146 59 -172 59 -20 0 -20 0 1 -23 28 -30 28 -43 -1 -51 -36 -9 -97
-67 -235 -224 -129 -146 -240 -257 -340 -340 -54 -45 -64 -62 -36 -62 26 0 82
-39 89 -61 5 -15 -3 -33 -26 -62 -18 -23 -37 -49 -43 -57 -21 -29 27 11 74 62
l45 48 38 -25 c20 -14 37 -30 37 -34 0 -5 -31 -37 -70 -71 -60 -53 -70 -59
-70 -40 0 12 16 42 36 66 51 62 21 56 -49 -11 -55 -53 -84 -103 -31 -54 l27
24 -28 -50 c-16 -27 -37 -59 -48 -70 -17 -17 -16 -14 3 13 12 18 19 36 15 40
-8 8 -60 -50 -115 -130 -53 -76 -65 -81 -34 -14 17 38 24 69 22 98 -3 38 -6
43 -28 46 -32 4 -88 -38 -126 -95 -29 -42 -46 -50 -52 -22 -5 27 68 124 115
152 32 20 50 40 65 75 19 42 20 53 10 102 -19 88 -90 177 -195 244 -53 33
-151 64 -257 81 -269 42 -344 66 -394 126 l-28 33 43 38 c24 21 39 38 32 38
-19 0 -82 59 -100 93 -8 17 -21 49 -27 71 l-12 41 -23 -67 c-22 -65 -55 -112
-96 -136 -19 -12 -18 -14 20 -47 l40 -34 -34 -35 c-44 -46 -126 -81 -236 -102
-246 -45 -283 -55 -354 -90 -86 -43 -176 -127 -212 -200 -18 -38 -24 -65 -24
-119 0 -67 3 -75 54 -165 30 -52 56 -97 58 -99 2 -3 9 4 17 14 13 18 14 18 26
-5 11 -21 10 -26 -10 -42 -12 -10 -29 -18 -37 -18 -8 0 -43 29 -77 64 -64 67
-110 90 -128 65 -13 -20 -2 -92 22 -142 l21 -42 -21 24 c-11 13 -30 54 -41 92
-12 38 -30 79 -41 92 -15 16 -18 18 -14 5 3 -10 8 -41 12 -70 l7 -52 -44 34
c-24 19 -84 74 -134 122 l-90 86 43 45 43 44 67 -70 c60 -62 102 -96 102 -83
0 3 -29 40 -65 83 l-65 77 33 34 c17 18 42 35 54 38 13 4 23 8 23 10 0 11 -43
51 -106 99 -39 30 -124 114 -190 187 -279 309 -318 348 -353 348 -11 1 -8 7
12 21 26 20 28 40 4 38 -7 -1 -30 -7 -52 -14z m-124 -121 c39 -41 52 -45 113
-29 31 8 76 15 99 14 41 -1 41 -1 15 -12 l-26 -12 59 -54 c52 -46 188 -211
175 -211 -3 0 -32 35 -64 78 -33 42 -81 97 -107 121 -42 39 -51 43 -84 38 -20
-3 -54 -13 -76 -23 l-40 -17 43 -8 c24 -5 58 -17 75 -27 18 -11 49 -25 69 -31
36 -12 117 -90 119 -115 0 -6 2 -28 4 -48 2 -21 0 -38 -5 -38 -13 0 -32 38
-25 50 3 5 -5 12 -19 16 -18 4 -30 20 -46 59 -24 58 -42 71 -121 81 l-51 7 17
-26 c20 -30 52 -44 68 -28 18 18 47 13 47 -9 0 -16 -7 -20 -35 -20 -19 0 -35
-5 -35 -10 0 -6 10 -8 23 -5 13 4 30 -1 42 -10 19 -16 18 -16 -22 -11 -39 6
-43 4 -49 -20 -4 -14 -2 -40 3 -57 8 -29 12 -32 56 -35 44 -3 47 -1 47 21 0
15 -9 28 -25 37 -33 18 -32 32 3 24 38 -9 42 -13 52 -40 6 -14 18 -24 29 -24
10 0 42 -16 71 -35 60 -40 75 -44 60 -14 -19 34 -5 32 36 -6 24 -22 34 -39 28
-44 -5 -5 -28 -25 -51 -43 -61 -48 -193 -208 -193 -233 0 -12 9 -30 21 -41 21
-19 21 -18 95 58 70 74 90 108 61 108 -7 0 -22 -7 -33 -15 -10 -8 -23 -15 -27
-15 -13 0 25 58 60 92 l32 31 27 -22 c15 -12 30 -19 33 -15 3 3 -4 14 -17 25
-23 18 -22 39 1 39 16 -1 44 -40 52 -72 8 -32 -34 -83 -108 -129 -85 -53 -147
-102 -147 -116 0 -11 -5 -11 -21 -3 -16 9 -24 8 -38 -4 -10 -9 -21 -16 -24
-16 -16 0 -5 67 20 123 l27 60 -28 22 c-26 21 -28 28 -30 106 -2 72 0 87 17
107 11 12 15 22 9 22 -6 0 -14 -4 -17 -10 -9 -14 -68 -13 -83 2 -7 7 -12 32
-12 56 0 38 -2 43 -17 37 -42 -17 -53 -17 -53 -1 0 27 4 31 29 28 24 -3 23 -2
-7 26 -19 18 -32 40 -32 54 1 22 1 22 12 3 15 -27 50 -65 60 -65 18 0 6 26
-29 62 -20 21 -40 38 -44 38 -4 0 -12 -13 -19 -30 -16 -39 -26 -38 -40 5 -6
19 -15 35 -20 35 -4 0 -22 -22 -39 -48 -38 -60 -75 -96 -93 -89 -8 3 -2 9 15
16 15 6 27 14 27 19 0 4 16 35 35 67 l36 59 -48 48 c-33 33 -44 51 -37 58 8 8
26 -1 60 -30 27 -22 52 -40 56 -40 18 0 5 18 -38 54 -43 36 -45 39 -28 57 23
25 36 24 65 -7z m1989 -77 c0 -9 -11 -27 -25 -39 -23 -20 -24 -23 -10 -45 l15
-23 -50 0 c-52 0 -63 11 -31 32 19 11 17 14 -20 36 -21 13 -39 27 -39 31 0 4
12 18 26 32 14 13 32 37 41 52 l14 28 39 -43 c22 -24 39 -51 40 -61z m1480
-70 c0 -2 -10 -12 -22 -23 l-23 -19 19 23 c18 21 26 27 26 19z m-1456 -200
c38 -30 50 -69 18 -60 -31 8 -51 -29 -62 -112 -5 -43 -9 -80 -7 -81 2 -2 41 3
88 10 90 14 121 9 138 -23 27 -50 -2 -121 -49 -121 -11 0 -45 13 -77 29 -32
16 -68 32 -80 36 l-23 6 0 -138 c1 -76 6 -158 11 -183 29 -119 19 -182 -31
-207 -23 -12 -27 -10 -51 16 -31 33 -46 111 -30 151 8 22 10 22 11 5 5 -60 20
56 26 198 l7 159 -24 -7 c-13 -4 -53 -20 -88 -36 -80 -37 -113 -37 -140 -3
-34 44 -23 106 22 123 13 5 57 3 107 -5 46 -8 88 -10 91 -6 7 7 -13 133 -26
165 -4 10 -20 21 -36 24 -16 3 -29 11 -29 17 0 7 24 33 53 58 30 26 60 61 67
78 l13 31 32 -49 c18 -26 49 -60 69 -75z m1386 109 c0 -2 -8 -10 -17 -17 -16
-13 -17 -12 -4 4 13 16 21 21 21 13z m460 -125 c0 -35 -63 -110 -175 -206 -49
-43 -100 -89 -113 -104 l-23 -26 23 45 c13 24 61 80 106 125 87 83 112 119
132 195 l12 45 19 -24 c10 -13 19 -35 19 -50z m-3650 19 c0 -12 -3 -12 -16 2
-9 9 -13 21 -9 28 9 14 25 -5 25 -30z m3389 8 c-8 -14 -14 -17 -22 -9 -7 7 -6
15 3 25 17 22 32 9 19 -16z m-3554 -123 c14 -20 54 -58 88 -86 34 -29 74 -70
90 -92 30 -44 37 -74 9 -41 -9 11 -46 45 -82 74 -98 81 -190 172 -206 203 -15
28 -13 38 14 69 14 17 17 14 38 -37 12 -31 34 -71 49 -90z m2498 -133 c1 -15
-2 -40 -7 -57 -6 -24 -5 -28 5 -17 21 20 83 15 104 -8 26 -29 25 -85 -3 -112
l-22 -22 0 27 c0 20 -6 28 -25 33 -31 8 -55 -10 -55 -43 0 -26 -25 -93 -36
-93 -3 0 -3 15 0 33 3 18 3 49 -1 68 -6 31 -8 26 -20 -46 -7 -44 -16 -87 -19
-95 -11 -28 -23 21 -24 100 -1 79 -12 80 -25 3 -11 -66 -27 -52 -19 16 6 52 4
60 -13 69 -22 12 -53 -2 -53 -23 0 -18 -22 -19 -38 -3 -17 17 -15 78 5 100 21
23 80 24 106 1 19 -18 20 -17 13 18 -8 44 4 79 46 132 l31 39 24 -46 c13 -26
25 -59 26 -74z m-1153 66 c22 -30 30 -52 30 -84 0 -43 0 -43 25 -32 53 24 115
-36 99 -95 -11 -38 -39 -48 -47 -17 -4 17 -12 21 -39 18 l-33 -3 -5 -77 c-9
-115 -25 -119 -41 -11 -14 98 -23 88 -17 -20 l4 -71 -18 40 c-9 21 -20 58 -24
82 -3 23 -10 45 -15 47 -18 12 -61 -9 -70 -33 l-10 -25 -24 23 c-35 32 -34 82
1 109 29 23 64 27 93 11 17 -8 17 -6 7 31 -9 37 -8 45 19 95 16 30 31 54 32
54 2 0 16 -19 33 -42z m1956 -20 c30 -22 59 -49 65 -60 11 -21 9 -22 -25 -7
-20 9 -29 9 -41 -1 -27 -22 -18 -65 25 -115 22 -25 40 -49 40 -52 0 -10 -99
78 -155 138 l-56 62 37 38 c21 22 42 39 46 39 5 0 34 -19 64 -42z m-2714 -425
c74 -76 141 -149 148 -163 10 -20 4 -17 -31 15 -88 80 -279 270 -279 277 0 26
42 -8 162 -129z m2643 69 c-27 -25 -101 -95 -163 -154 -62 -59 -115 -108 -117
-108 -24 0 19 51 152 179 113 110 159 149 167 141 8 -8 -3 -24 -39 -58z
m-1265 -104 c0 -16 -3 -19 -11 -11 -6 6 -8 16 -5 22 11 17 16 13 16 -11z
m-317 -57 c29 -11 52 -61 43 -96 -4 -16 -19 -30 -43 -40 -20 -8 -38 -13 -41
-10 -3 3 0 5 6 5 21 0 13 15 -18 32 -36 21 -41 67 -10 98 23 23 29 24 63 11z
m540 -2 c30 -16 37 -28 37 -66 0 -56 -59 -89 -105 -59 -42 27 -30 106 18 126
29 11 25 12 50 -1z m-643 -49 c0 -5 -3 -9 -7 -9 -5 1 -52 1 -106 0 -96 -1 -97
-1 -87 -22 16 -30 5 -64 -26 -78 -53 -24 -96 36 -60 85 11 14 31 21 78 25 107
10 208 10 208 -1z m938 0 c57 -1 93 -46 68 -85 -21 -32 -52 -40 -81 -21 -27
17 -32 45 -15 77 10 18 6 19 -100 19 -73 0 -110 4 -110 11 0 7 33 9 108 5 59
-3 117 -5 130 -6z m-2273 -95 c36 -35 35 -96 -1 -124 -88 -69 -198 46 -119
124 33 34 87 34 120 0z m825 -5 c36 -36 18 -90 -30 -90 -59 0 -74 69 -22 99
24 15 29 14 52 -9z m1755 -24 c23 -34 5 -66 -35 -66 -40 0 -58 32 -35 66 8 13
24 24 35 24 11 0 27 -11 35 -24z m-1926 -89 c28 -37 51 -73 51 -80 0 -7 -10 4
-21 23 -12 19 -39 56 -60 81 -22 26 -39 50 -39 55 0 11 10 0 69 -79z m2050 56
c-7 -10 -24 -31 -38 -48 -13 -16 -33 -48 -43 -70 -16 -33 -18 -35 -13 -11 7
33 83 146 98 146 5 0 3 -8 -4 -17z m-729 -29 c138 -18 269 -45 410 -86 109
-31 258 -94 247 -104 -3 -3 -51 10 -107 30 -129 46 -299 88 -470 117 -117 20
-170 23 -405 23 -233 1 -291 -3 -425 -23 -183 -27 -385 -76 -490 -119 -47 -19
-79 -26 -85 -21 -14 14 2 22 154 72 360 119 788 160 1171 111z m-20 -70 c121
-15 283 -45 277 -50 -2 -2 -52 3 -113 11 -305 39 -570 42 -883 9 -74 -7 -136
-12 -138 -10 -7 6 279 48 382 56 124 10 324 3 475 -16z m-5 -59 c187 -22 343
-52 470 -90 153 -47 203 -70 217 -100 13 -28 5 -43 -14 -27 -20 16 -180 70
-287 96 -172 43 -347 66 -486 65 l-80 0 111 -23 c147 -31 157 -37 49 -28 -49
4 -198 7 -330 6 l-240 0 78 20 c42 11 77 23 77 26 0 3 -55 2 -122 -2 -307 -18
-659 -98 -725 -164 -26 -26 -28 -19 -11 37 11 38 13 40 106 69 338 109 831
156 1187 115z m-598 -111 c-3 -3 -12 -4 -19 -1 -8 3 -5 6 6 6 11 1 17 -2 13
-5z m700 -10 c-3 -3 -12 -4 -19 -1 -8 3 -5 6 6 6 11 1 17 -2 13 -5z m-92 -29
c250 -35 669 -154 650 -184 -3 -6 -34 1 -73 16 -274 105 -523 147 -887 147
-356 0 -551 -28 -832 -120 -94 -31 -147 -44 -160 -39 -17 8 -17 8 2 13 11 2
75 22 142 43 236 75 454 121 653 138 128 12 370 5 505 -14z"/>
<path d="M942 4107 c-25 -26 -27 -45 -11 -81 9 -19 9 -32 0 -53 -10 -24 -8
-35 8 -68 l19 -39 16 32 c27 52 19 90 -13 60 -11 -11 -11 -9 -2 9 18 34 71 67
130 78 l55 11 -44 18 c-24 9 -54 26 -68 37 -33 25 -64 24 -90 -4z m78 -18 c0
-6 -9 -9 -19 -6 -14 3 -18 1 -14 -9 6 -17 -15 -46 -28 -38 -15 9 -10 42 9 53
23 14 52 14 52 0z"/>
<path d="M960 4066 c0 -9 5 -16 10 -16 6 0 10 4 10 9 0 6 -4 13 -10 16 -5 3
-10 -1 -10 -9z"/>
<path d="M2620 3879 c0 -5 23 -9 52 -9 28 0 49 2 47 4 -9 8 -99 13 -99 5z"/>
<path d="M2457 3873 c18 -2 50 -2 70 0 21 2 7 4 -32 4 -38 0 -55 -2 -38 -4z"/>
<path d="M3923 3965 c-26 -23 -27 -24 -7 -25 12 0 29 11 38 25 21 32 5 32 -31
0z"/>
<path d="M4435 4400 c3 -5 8 -10 11 -10 2 0 4 5 4 10 0 6 -5 10 -11 10 -5 0
-7 -4 -4 -10z"/>
<path d="M4335 4300 c-41 -42 -36 -54 7 -20 20 15 45 60 34 60 -1 0 -20 -18
-41 -40z"/>
<path d="M4108 4073 c7 -3 16 -2 19 1 4 3 -2 6 -13 5 -11 0 -14 -3 -6 -6z"/>
<path d="M1350 3741 c1 -3 23 -31 51 -61 39 -43 48 -49 40 -27 -23 60 -41 85
-66 89 -14 3 -25 2 -25 -1z"/>
<path d="M758 3410 c-41 -22 -69 -58 -86 -109 -42 -123 53 -251 186 -251 73 0
159 -26 237 -72 140 -83 332 -243 323 -270 -3 -7 -20 -15 -39 -18 -80 -12 -51
-110 32 -110 67 0 108 74 75 137 -26 51 -198 196 -331 280 -104 66 -162 86
-270 93 -116 7 -142 20 -175 86 -25 50 -25 87 -1 140 47 104 140 116 316 40
99 -43 308 -149 360 -182 18 -12 22 -9 44 24 l24 37 -27 -25 c-24 -22 -29 -23
-49 -10 -89 55 -248 137 -346 176 -140 56 -216 66 -273 34z"/>
<path d="M4238 3380 c-14 -4 -44 -17 -65 -28 -21 -12 -72 -35 -113 -53 -170
-71 -440 -240 -440 -274 0 -8 9 -19 20 -25 15 -8 18 -8 14 4 -3 8 12 27 38 49
82 66 278 177 278 156 0 -6 12 -1 27 10 35 28 43 18 12 -16 l-24 -27 29 18
c29 18 29 18 51 -10 31 -40 29 -47 -13 -61 l-37 -12 40 5 c22 4 67 6 99 5 l60
-2 -62 65 c-34 35 -62 71 -62 79 0 12 30 47 41 47 3 0 3 -17 1 -38 -4 -43 18
-78 81 -123 74 -53 147 -32 181 52 28 70 -6 144 -80 175 -37 16 -38 16 -76 4z
m87 -65 c55 -54 16 -145 -60 -145 -48 0 -95 45 -95 90 0 73 102 109 155 55z"/>
<path d="M1433 3174 c-4 -11 3 -23 18 -36 38 -30 79 -49 89 -43 20 12 9 35
-25 50 -19 9 -39 23 -46 31 -15 19 -28 18 -36 -2z"/>
<path d="M3657 2973 c-4 -3 -7 -11 -7 -17 0 -6 5 -5 12 2 6 6 9 14 7 17 -3 3
-9 2 -12 -2z"/>
<path d="M1071 2808 c-62 -136 -109 -387 -112 -593 l-1 -80 -9 60 c-10 73 -30
157 -35 152 -8 -8 16 -257 36 -372 51 -296 99 -415 248 -620 30 -41 40 -61 30
-64 -7 -2 -33 -17 -56 -34 -39 -26 -44 -33 -40 -63 4 -32 1 -35 -82 -89 -47
-31 -154 -97 -239 -148 -85 -51 -159 -100 -165 -109 -15 -25 29 -110 85 -163
96 -90 163 -81 339 45 99 72 115 80 170 86 47 5 60 10 60 24 0 10 27 32 73 58
124 71 117 71 194 1 141 -128 358 -253 548 -317 163 -54 162 -45 -5 39 -197
100 -400 233 -504 330 -42 39 -76 75 -76 79 0 13 96 80 113 80 20 0 57 -47 57
-72 0 -25 44 -65 80 -73 16 -4 45 -17 64 -30 l35 -24 7 35 c15 79 -32 154 -96
154 -22 0 -30 6 -38 30 -10 28 -8 32 40 75 42 38 49 49 44 70 -4 14 -10 25
-14 25 -5 0 -37 -20 -72 -45 -35 -25 -66 -42 -69 -39 -3 3 22 32 57 64 34 32
62 62 62 65 0 4 -16 -2 -35 -14 -19 -12 -51 -30 -70 -42 -56 -33 -41 -14 25
32 66 46 80 63 25 30 -19 -12 -51 -30 -70 -42 -56 -34 -40 -4 25 46 33 25 60
48 60 51 0 4 -64 -34 -112 -68 -16 -11 -28 -16 -28 -11 0 4 41 41 90 82 50 40
90 75 90 77 0 9 -13 1 -92 -59 -100 -76 -120 -88 -93 -57 30 33 162 140 174
140 6 0 11 18 11 41 0 33 -3 40 -16 35 -9 -3 -12 -2 -9 5 8 12 -13 39 -31 39
-7 0 -29 -13 -47 -30 -19 -16 -38 -30 -42 -30 -4 0 -35 -22 -69 -49 -59 -47
-95 -56 -81 -20 3 9 -6 24 -25 37 -39 29 -38 48 5 111 19 28 35 53 35 57 0 3
-23 -11 -51 -32 -58 -42 -58 -43 -101 40 l-20 39 23 49 c12 26 20 50 18 52 -7
8 -69 -53 -69 -67 0 -7 18 -48 41 -92 48 -95 38 -89 -28 19 -38 61 -58 84 -93
102 -24 13 -51 31 -59 40 -15 15 -14 16 4 10 40 -15 83 -18 101 -7 17 9 15 10
-13 11 -18 0 -50 7 -72 16 -50 20 -66 57 -65 145 2 72 36 155 76 183 33 23 45
19 21 -6 -70 -77 -83 -159 -34 -209 26 -26 35 -29 69 -23 86 14 150 -34 138
-101 -12 -62 50 -95 149 -81 l45 7 0 76 c0 96 -27 149 -98 190 -40 24 -58 28
-123 28 -63 0 -81 -4 -99 -20 l-23 -20 8 25 c12 39 56 92 86 103 28 11 31 20
45 127 10 85 -61 149 -151 136 -38 -5 -42 -3 -52 22 -9 26 -10 26 -26 -27 -19
-62 -21 -91 -7 -91 5 0 14 9 20 20 27 50 108 61 145 20 24 -26 12 -52 -37 -80
-69 -38 -123 -96 -157 -164 -40 -82 -48 -141 -28 -203 27 -86 29 -110 13 -142
-21 -40 -20 -59 6 -101 l22 -35 8 41 c9 42 57 100 65 77 35 -97 131 -253 220
-359 24 -28 43 -53 43 -56 0 -5 -169 -134 -198 -152 -7 -4 -20 -2 -28 5 -12
10 -19 8 -39 -11 -27 -25 -32 -49 -14 -67 12 -12 121 50 232 133 49 36 53 38
22 10 -22 -20 -55 -46 -72 -59 -44 -30 -48 -46 -21 -74 l24 -23 96 67 97 68
-21 35 c-16 29 -10 25 37 -24 53 -55 55 -59 39 -77 -9 -10 -14 -25 -11 -34 5
-10 -23 -37 -96 -92 -56 -42 -134 -103 -173 -135 -39 -32 -73 -58 -76 -58 -3
0 -8 7 -11 14 -4 9 -1 13 6 11 7 -3 53 34 102 81 l90 85 -61 -41 c-69 -45 -76
-47 -67 -23 5 12 -4 9 -29 -10 l-36 -27 -6 22 c-3 13 -6 34 -6 48 0 19 -10 8
-42 -47 -24 -39 -46 -69 -51 -66 -4 2 2 21 13 41 17 27 -3 13 -77 -58 -134
-127 -223 -173 -223 -113 0 10 72 88 159 173 l159 155 -16 29 c-17 28 -17 28
17 55 68 52 140 124 135 133 -3 5 -12 7 -19 4 -32 -12 -158 176 -236 354 -25
57 -33 91 -35 140 -1 36 -7 133 -14 215 -16 208 -2 370 40 457 23 48 25 68 7
68 -7 0 -23 -19 -34 -42 -19 -38 -22 -40 -22 -18 -1 29 50 243 73 308 22 63 9
51 -23 -20z m247 -558 c-56 -74 -69 -95 -78 -131 -12 -43 -4 -89 14 -89 7 0
21 7 32 15 32 24 68 17 117 -21 42 -33 87 -101 87 -133 0 -7 -21 9 -47 37 -54
56 -101 75 -168 65 -36 -5 -44 -2 -59 18 -21 30 -21 101 0 141 19 36 102 128
116 128 5 0 -1 -14 -14 -30z m134 -190 c50 -14 95 -68 103 -124 10 -62 -5 -97
-16 -39 -16 84 -58 136 -130 158 -33 10 -37 14 -19 14 14 1 42 -4 62 -9z m58
-230 l45 -20 -40 6 c-22 3 -48 13 -57 21 -21 19 -25 41 -5 25 7 -6 33 -20 57
-32z m250 -254 c0 -6 -187 -156 -195 -156 -8 0 53 53 128 111 65 50 67 52 67
45z m56 -500 c1 -1 4 -20 7 -43 5 -39 3 -43 -16 -43 -12 0 -37 9 -54 20 -26
15 -33 27 -33 50 0 30 0 30 48 23 26 -3 48 -6 48 -7z m-716 -31 c0 -2 -28 -23
-62 -46 -35 -23 -58 -36 -52 -30 10 11 105 79 112 80 1 1 2 -1 2 -4z m117
-127 c-3 -8 -6 -5 -6 6 -1 11 2 17 5 13 3 -3 4 -12 1 -19z m-70 -50 c-3 -8 -6
-5 -6 6 -1 11 2 17 5 13 3 -3 4 -12 1 -19z m-316 -42 c-12 -19 -22 -49 -23
-68 -1 -40 27 -88 52 -88 34 0 140 62 176 103 20 23 32 33 26 22 -29 -56 -149
-135 -204 -135 -16 0 -41 6 -56 14 -36 19 -96 83 -117 125 l-17 34 38 -6 c27
-4 47 -16 67 -39 l27 -32 0 33 c0 40 16 71 36 71 13 0 12 -6 -5 -34z"/>
<path d="M3914 2825 c4 -11 22 -63 41 -116 18 -53 47 -123 63 -155 105 -212
106 -600 3 -859 -36 -90 -105 -221 -158 -301 -30 -46 -39 -53 -59 -48 -13 3
-24 3 -24 -1 0 -13 92 -117 109 -122 9 -3 26 -15 38 -26 17 -15 20 -24 12 -44
-14 -37 -12 -41 31 -69 22 -15 38 -30 35 -34 -2 -4 45 -56 106 -115 61 -59
117 -118 126 -131 14 -22 14 -24 -1 -30 -22 -8 -88 21 -143 63 -24 18 -45 33
-48 33 -3 0 -5 -15 -6 -32 l-1 -33 -11 36 c-12 35 -51 96 -95 147 l-22 27 20
-45 c11 -25 19 -54 19 -65 0 -12 -5 -6 -13 16 -15 42 -44 85 -76 114 l-23 20
5 -20 c3 -11 9 -29 13 -40 6 -19 6 -19 -5 -1 -9 13 -14 15 -20 6 -5 -9 -23 -2
-64 24 l-57 36 15 -27 c8 -16 39 -52 70 -82 55 -54 55 -55 65 -30 5 13 10 19
10 12 1 -6 -4 -24 -9 -39 l-10 -26 -48 43 c-26 24 -102 85 -169 134 -91 67
-123 96 -123 112 0 12 -7 29 -16 38 -15 15 -11 20 46 73 35 31 67 59 72 61 13
4 -7 -33 -28 -54 -19 -19 -22 -15 73 -83 65 -47 72 -49 85 -34 34 39 33 44
-28 100 -36 34 -42 41 -14 18 25 -20 80 -61 122 -92 71 -51 77 -57 67 -77 -7
-15 -2 -12 15 8 14 17 25 37 26 46 0 21 -36 53 -50 44 -10 -6 -93 48 -190 124
-25 19 -47 37 -49 38 -2 2 14 24 36 51 90 107 203 293 203 336 0 6 5 18 10 26
8 12 14 10 40 -15 16 -16 30 -37 30 -46 0 -10 3 -24 6 -33 5 -13 10 -11 27 11
16 20 20 37 17 67 -5 61 -3 154 5 218 7 53 5 63 -29 135 -49 102 -75 135 -147
184 -71 48 -81 65 -50 91 41 33 98 22 154 -30 33 -31 34 -24 5 31 -13 23 -31
62 -40 87 l-18 45 3 -42 3 -43 -68 0 c-66 0 -69 -1 -88 -32 -15 -25 -20 -51
-20 -108 0 -92 7 -120 30 -120 10 0 34 -18 54 -40 39 -43 47 -67 19 -54 -10 4
-41 10 -70 12 -67 5 -149 -30 -184 -79 -21 -30 -24 -45 -24 -123 l0 -90 33 -8
c37 -10 103 4 126 27 10 10 13 26 9 50 -11 65 55 115 132 101 40 -8 56 5 74
61 20 60 1 117 -60 176 -27 26 -56 47 -65 47 -9 0 9 -24 44 -57 70 -68 85
-113 58 -178 -15 -35 -18 -37 -53 -32 -65 8 -120 -11 -158 -56 l-35 -41 0 34
c0 27 9 42 46 77 40 37 44 43 25 43 -60 0 -109 -49 -126 -127 l-13 -58 -1 63
c-1 57 2 66 27 92 18 18 48 32 85 40 49 11 62 11 101 -4 24 -9 47 -25 51 -34
10 -27 25 5 25 56 0 53 -16 85 -69 137 -23 21 -41 45 -41 51 0 28 24 24 75
-11 59 -40 98 -86 121 -140 15 -36 21 -147 10 -183 -10 -30 -50 -52 -106 -59
-27 -3 -47 -10 -44 -14 8 -14 51 -11 90 6 54 22 38 -4 -26 -43 -46 -27 -61
-44 -98 -113 -24 -44 -47 -78 -50 -75 -2 3 0 11 6 18 5 7 20 42 31 78 l21 64
-30 30 c-32 33 -40 20 -15 -24 20 -35 18 -64 -6 -113 -12 -23 -23 -44 -25 -46
-1 -1 -21 12 -43 30 -23 18 -43 30 -46 28 -2 -3 7 -27 20 -54 30 -58 31 -81 6
-95 -35 -18 -52 -41 -46 -61 4 -11 2 -19 -5 -19 -12 0 -129 87 -177 133 -32
30 -33 30 -53 12 -11 -10 -20 -22 -20 -27 0 -5 -7 -16 -15 -25 -12 -12 -13
-18 -4 -29 9 -11 8 -14 -5 -14 -23 0 -7 -29 53 -94 48 -51 42 -53 -20 -4 -69
53 -54 28 31 -52 l85 -81 -73 51 c-41 28 -76 50 -78 48 -2 -3 30 -31 71 -63
41 -32 73 -61 70 -63 -3 -3 -35 16 -73 41 -108 75 -108 56 0 -34 74 -62 56
-75 -20 -15 -32 25 -61 46 -65 46 -3 0 -12 -10 -18 -22 -11 -20 -6 -27 51 -78
57 -51 62 -58 51 -78 -8 -16 -21 -22 -45 -22 -23 0 -43 -9 -64 -28 -37 -35
-46 -67 -37 -127 l6 -46 30 25 c17 14 48 30 71 36 49 14 88 50 88 83 0 14 8
35 18 47 16 20 21 21 43 10 32 -18 108 -74 108 -80 0 -3 -34 -34 -75 -70 -142
-124 -385 -271 -623 -377 -63 -28 -69 -32 -36 -27 215 36 570 220 737 381 l37
36 58 -33 c75 -42 123 -78 123 -93 0 -7 19 -13 47 -14 35 -2 58 -10 88 -33
105 -79 219 -150 256 -160 30 -8 50 -8 77 1 52 17 136 100 162 160 20 48 20
52 5 69 -9 10 -100 67 -201 127 -243 142 -279 169 -279 211 0 27 -7 37 -45 62
-25 16 -49 31 -53 33 -4 1 22 47 58 101 83 124 114 186 159 314 59 170 88 371
85 587 -1 71 -2 155 -2 185 1 41 -1 49 -7 30 -4 -14 -9 -90 -10 -170 -2 -131
-3 -139 -11 -80 -33 242 -63 365 -100 410 l-20 25 19 -40 c11 -22 23 -63 27
-90 l6 -50 -33 75 c-46 102 -114 225 -135 241 -15 12 -16 12 -9 -6z m-236
-967 c-6 -16 -43 -34 -88 -42 -32 -6 -30 -4 20 22 64 34 73 36 68 20z m-190
-381 c46 -37 80 -67 75 -67 -10 0 -183 138 -183 147 0 6 -2 8 108 -80z m-109
-11 c-2 -2 -13 8 -23 22 l-19 27 24 -22 c12 -12 21 -24 18 -27z m41 -411 c0
-30 -33 -62 -71 -67 -29 -4 -29 -4 -29 44 l0 48 50 0 c46 0 50 -2 50 -25z
m652 -42 c98 -68 82 -65 -24 5 -36 23 -45 32 -33 32 3 0 29 -17 57 -37z m236
-165 c7 -7 12 -30 12 -52 l1 -41 20 38 c17 33 24 37 59 37 47 0 46 -9 -7 -82
-41 -57 -89 -88 -134 -88 -38 0 -123 45 -154 81 -19 22 -18 22 15 -2 44 -33
115 -69 134 -69 45 0 75 112 41 156 -24 31 -14 49 13 22z m-225 -58 c3 -11 1
-18 -4 -14 -5 3 -9 12 -9 20 0 20 7 17 13 -6z"/>
<path d="M1998 2785 c13 -25 62 -72 62 -59 0 6 -16 26 -36 45 -22 20 -32 26
-26 14z"/>
<path d="M3065 2738 l-40 -43 43 40 c39 36 47 45 39 45 -2 0 -21 -19 -42 -42z"/>
<path d="M1754 2698 c37 -51 56 -104 56 -162 0 -51 2 -57 15 -46 33 27 14 128
-35 190 -33 42 -65 57 -36 18z"/>
<path d="M3329 2670 c-42 -57 -56 -121 -38 -166 12 -28 13 -27 19 36 6 66 30
129 56 151 8 6 14 15 14 20 0 20 -17 6 -51 -41z"/>
<path d="M1244 2676 c-93 -43 -154 -112 -154 -174 0 -67 58 -85 73 -22 22 92
29 108 59 144 17 21 50 47 72 57 26 12 34 19 21 19 -11 0 -43 -11 -71 -24z"/>
<path d="M2574 2559 l-1 -142 30 59 c16 33 44 77 61 99 l31 40 -37 -22 -36
-21 -6 23 c-3 12 -14 41 -23 64 l-18 41 -1 -141z"/>
<path d="M3832 2671 c41 -36 63 -78 78 -149 6 -27 20 -58 31 -68 18 -16 20
-16 39 1 27 25 26 83 -2 125 -24 35 -116 102 -157 115 -21 6 -19 3 11 -24z"/>
<path d="M2519 2620 c-23 -69 -23 -70 -43 -52 -12 10 -30 24 -41 32 -19 14
-19 14 -5 -5 8 -11 25 -33 39 -50 13 -16 37 -57 53 -90 l28 -60 0 148 c0 81
-2 147 -4 147 -3 0 -15 -31 -27 -70z"/>
<path d="M1902 2624 c-3 -63 19 -77 106 -69 85 9 124 -3 209 -61 35 -23 99
-54 143 -69 82 -27 137 -72 126 -102 -4 -8 -6 -18 -6 -23 0 -20 -34 -40 -68
-40 -56 1 -111 31 -170 94 -29 31 -56 56 -61 56 -5 0 19 -29 53 -65 113 -117
222 -139 262 -52 l15 32 -6 -30 c-8 -41 -57 -85 -95 -85 -44 0 -126 31 -200
76 -100 61 -125 69 -225 69 -157 0 -204 -38 -213 -170 -6 -89 16 -171 59 -220
45 -51 55 -43 14 11 -19 25 -35 49 -35 54 0 5 -3 17 -7 27 -3 10 9 -4 28 -32
47 -69 104 -96 201 -97 49 0 92 7 133 21 73 26 76 26 45 0 -32 -26 124 56 168
89 19 13 42 38 53 56 10 17 19 25 19 18 0 -21 -20 -54 -54 -91 l-31 -33 32 16
c42 21 72 61 86 114 6 24 26 60 43 80 31 36 31 36 57 19 14 -9 41 -49 61 -89
23 -48 46 -81 68 -95 18 -13 56 -45 85 -73 42 -40 59 -50 85 -50 32 1 32 1 13
16 -11 9 -45 28 -76 44 -30 16 -72 47 -92 69 -46 51 -49 65 -4 19 28 -31 192
-128 214 -128 4 0 -30 25 -77 55 -79 52 -119 88 -120 108 0 5 26 -15 58 -43
86 -77 166 -112 272 -118 108 -6 163 15 209 79 38 51 40 42 5 -20 l-25 -46 30
32 c38 41 53 97 53 196 -1 139 -50 182 -207 182 -82 0 -97 -3 -150 -31 -215
-111 -208 -108 -267 -109 -49 0 -61 4 -85 27 -17 17 -29 43 -33 70 l-7 43 -17
-39 -18 -39 -28 50 c-40 69 -79 99 -162 124 -40 12 -100 40 -137 65 -82 55
-151 72 -223 55 -66 -15 -95 1 -101 56 l-4 38 -1 -41z m224 -456 c39 -28 49
-48 23 -48 -6 0 -46 -14 -90 -31 -44 -18 -82 -29 -85 -26 -15 14 8 96 33 122
32 32 56 28 119 -17z m996 15 c16 -14 45 -109 36 -119 -3 -2 -25 7 -49 21 -25
13 -69 30 -98 38 l-53 13 36 27 c61 47 90 52 128 20z m-863 -127 c-10 -10
-147 -75 -169 -80 -23 -7 -24 -6 -5 6 46 29 194 92 174 74z m785 -48 c32 -16
56 -31 53 -34 -6 -6 -110 40 -140 61 l-22 17 25 -7 c14 -4 51 -21 84 -37z"/>
<path d="M3200 2628 c0 -49 -24 -72 -64 -63 -109 23 -151 15 -247 -47 -35 -23
-94 -52 -131 -64 -109 -38 -148 -74 -148 -142 0 -67 90 -88 180 -42 43 22 178
140 159 140 -5 0 -28 -21 -51 -46 -103 -110 -268 -138 -268 -45 0 41 53 84
136 111 38 12 91 38 119 57 88 64 127 76 216 69 70 -7 80 -5 98 13 22 22 27
56 11 81 -7 11 -10 6 -10 -22z"/>
<path d="M3195 2450 c-3 -5 -2 -10 4 -10 5 0 13 5 16 10 3 6 2 10 -4 10 -5 0
-13 -4 -16 -10z"/>
<path d="M1807 2422 c-23 -14 -67 -83 -67 -105 0 -22 22 -1 39 38 12 27 33 52
53 65 18 11 26 20 18 20 -8 0 -28 -8 -43 -18z"/>
<path d="M3276 2421 c28 -17 64 -73 64 -100 0 -6 5 -11 10 -11 44 0 -45 129
-90 130 -8 0 -1 -9 16 -19z"/>
<path d="M1691 2188 c0 -13 4 -32 9 -43 7 -16 9 -13 9 17 1 20 -3 40 -9 43 -6
3 -10 -4 -9 -17z"/>
<path d="M3420 2173 c0 -28 3 -34 10 -23 13 20 13 47 0 55 -6 4 -10 -9 -10
-32z"/>
<path d="M2532 2145 c0 -16 2 -22 5 -12 2 9 2 23 0 30 -3 6 -5 -1 -5 -18z"/>
<path d="M2582 2145 c0 -16 2 -22 5 -12 2 9 2 23 0 30 -3 6 -5 -1 -5 -18z"/>
<path d="M2476 2021 c-23 -24 -29 -42 -36 -104 -6 -47 -19 -94 -34 -126 -37
-72 -36 -133 4 -173 35 -35 69 -33 109 7 22 21 26 36 31 122 8 111 1 293 -11
293 -4 0 -11 -4 -14 -10 -10 -16 -28 -12 -21 5 8 21 4 19 -28 -14z"/>
<path d="M2587 2028 c-17 -18 -18 -36 -15 -192 3 -188 11 -216 65 -237 35 -13
61 -3 84 34 27 45 24 82 -12 157 -19 40 -33 88 -36 125 -9 100 -49 152 -86
113z"/>
<path d="M3322 1959 c-18 -21 -54 -48 -79 -60 -39 -19 -56 -21 -131 -17 -66 4
-79 3 -52 -4 19 -6 68 -8 108 -6 56 3 72 0 72 -10 0 -18 88 65 107 101 21 41
13 39 -25 -4z"/>
<path d="M1773 1965 c19 -37 107 -118 107 -99 0 8 10 14 23 15 17 1 15 3 -11
12 -19 6 -56 31 -84 56 -46 41 -49 43 -35 16z"/>
<path d="M3393 1953 c-11 -22 -9 -31 12 -68 32 -54 32 -100 -1 -152 -57 -87
-150 -115 -244 -72 -24 11 -63 23 -86 26 -76 10 -164 -50 -164 -114 0 -11 -3
-14 -10 -7 -6 6 -6 22 1 46 12 47 78 104 133 117 l41 9 -44 1 c-129 3 -217
-123 -177 -253 8 -27 13 -52 11 -56 -5 -8 -75 -5 -98 5 -10 4 -31 5 -47 2 -26
-6 -31 -2 -46 28 -9 19 -20 35 -25 35 -12 0 -11 -6 6 -40 17 -34 17 -34 -21
-20 -20 8 -32 7 -50 -5 -21 -13 -26 -13 -52 2 -28 16 -31 16 -56 -1 l-27 -17
15 30 c9 16 16 41 16 55 0 14 11 38 25 53 l25 28 -1 -25 c-1 -14 -1 -38 0 -55
2 -48 21 -9 21 46 0 55 -6 63 -34 44 -11 -8 -34 -15 -51 -15 -25 -1 -27 -2
-12 -11 21 -12 21 -28 0 -96 -16 -51 -17 -52 -36 -36 -17 17 -20 17 -48 0 -24
-13 -34 -14 -49 -5 -15 9 -24 9 -45 -2 -22 -12 -28 -12 -35 -1 -4 8 -13 10
-19 6 -7 -4 -23 1 -36 9 -26 17 -33 60 -15 101 6 15 9 5 9 -34 1 -71 18 -57
30 25 9 61 16 37 12 -38 -2 -22 2 -38 8 -38 16 0 14 106 -4 139 -43 84 -121
106 -238 67 -43 -14 -94 -26 -113 -26 -71 0 -142 55 -158 123 -8 35 1 34 52
-3 46 -33 108 -40 169 -18 32 12 45 28 22 28 -7 0 -5 10 5 25 15 23 15 24 -5
17 -12 -5 -44 -5 -72 -1 -60 8 -65 6 -79 -29 -10 -24 -12 -25 -16 -7 -6 28
-24 48 -31 36 -9 -14 -51 -2 -51 16 0 7 9 31 19 52 12 22 16 43 11 50 -5 10
-19 -1 -49 -39 -50 -63 -52 -95 -12 -165 33 -58 46 -70 110 -105 44 -24 47
-28 64 -95 9 -38 24 -126 32 -195 39 -335 41 -339 135 -389 83 -44 123 -81
187 -172 63 -91 107 -132 160 -150 52 -19 321 -19 383 0 54 16 104 65 178 174
42 62 66 87 114 115 33 21 74 46 91 57 57 36 75 92 103 306 39 310 39 311 114
349 37 19 95 81 119 127 20 39 13 86 -20 132 -18 23 -35 56 -38 71 l-6 29 -12
-26z m-1487 -164 c3 -6 0 -15 -7 -20 -22 -13 -49 -11 -49 5 0 13 13 20 42 25
4 0 10 -4 14 -10z m158 -214 c21 -33 22 -62 2 -107 -19 -44 -20 -68 -5 -118
15 -51 101 -140 134 -140 8 0 15 -9 15 -19 0 -25 16 -36 24 -16 11 29 25 14
36 -37 12 -61 30 -96 30 -62 0 12 -6 40 -14 62 l-15 41 24 -11 c18 -8 28 -8
38 0 11 9 18 7 32 -8 22 -24 43 -25 73 -4 21 15 25 15 43 -2 17 -15 25 -16 50
-7 21 8 37 8 60 0 25 -10 35 -9 59 5 17 10 32 13 35 7 9 -14 61 -11 75 6 9 11
17 12 30 5 24 -13 26 -13 43 4 11 12 13 6 9 -40 -3 -36 -1 -54 7 -54 7 0 11
21 11 55 0 42 3 55 15 55 8 0 15 -6 16 -12 0 -7 4 -3 9 10 5 12 15 22 21 22
22 0 101 73 115 106 18 43 17 122 -1 154 -22 38 -18 78 10 105 45 46 55 35 55
-58 0 -92 -18 -173 -54 -245 -13 -26 -26 -64 -30 -84 -4 -21 -14 -42 -24 -47
-15 -9 -15 -11 6 -26 12 -9 20 -21 17 -26 -4 -5 2 -9 13 -9 22 0 43 21 66 67
23 45 19 66 -4 22 -23 -43 -45 -63 -61 -54 -7 5 -8 10 -1 14 14 9 57 116 76
189 9 35 27 86 41 115 l23 52 2 -45 1 -45 20 35 c11 19 17 26 15 15 -3 -11
-10 -78 -16 -149 -17 -194 -49 -273 -126 -306 -63 -27 -139 -102 -201 -198
-58 -90 -90 -112 -179 -127 -38 -6 -42 -4 -48 17 -3 13 -17 37 -30 53 l-25 30
-1 -42 c0 -48 -16 -58 -26 -15 -3 15 -7 31 -8 36 -1 5 -12 -7 -25 -27 -12 -20
-19 -42 -15 -48 11 -19 -112 -3 -160 21 -31 14 -55 40 -96 101 -58 85 -154
183 -192 195 -31 9 -78 43 -78 55 0 6 5 7 11 3 6 -3 4 5 -5 18 -9 14 -22 73
-30 134 -17 124 -29 317 -20 294 4 -8 19 -42 34 -75 15 -33 31 -76 35 -95 4
-19 15 -52 25 -75 9 -22 20 -53 24 -70 l7 -30 -22 33 c-12 18 -33 59 -46 90
-19 45 -23 49 -18 22 9 -47 48 -130 74 -157 18 -19 20 -27 11 -44 -14 -25 -35
-12 -45 28 -3 14 -9 23 -12 20 -16 -17 45 -117 71 -117 6 0 5 4 -2 9 -9 5 9
10 48 14 62 5 100 26 100 54 0 15 -16 17 -25 3 -3 -5 -14 -10 -24 -10 -10 0
-24 -7 -31 -15 -7 -8 -26 -15 -42 -15 -29 0 -29 0 -11 24 10 14 29 30 42 36
13 6 21 13 18 16 -3 3 -14 1 -26 -5 -11 -7 -22 -7 -25 -2 -4 5 0 11 6 14 10 4
11 7 1 18 -7 7 -13 21 -13 30 0 9 -18 62 -40 117 -34 83 -41 117 -47 196 l-6
96 25 0 c16 0 32 -9 42 -25z m841 -68 c9 -48 25 -38 26 16 l1 42 10 -47 c11
-51 5 -84 -12 -73 -6 4 -18 1 -26 -6 -8 -6 -16 -10 -19 -8 -2 3 -7 40 -10 84
-6 74 -5 78 9 55 8 -14 18 -42 21 -63z m-754 -128 c-9 -23 -10 -22 -10 11 -1
23 2 31 9 24 7 -7 7 -19 1 -35z m822 -2 c-9 -16 -24 9 -17 28 7 18 8 18 14 -1
4 -10 5 -23 3 -27z m-559 17 c3 -9 6 -40 6 -70 l0 -55 -32 3 c-30 3 -33 6 -36
42 -2 21 2 51 9 67 12 32 43 39 53 13z m116 -3 c5 -11 10 -45 10 -76 l0 -56
-47 3 -48 3 3 55 c2 30 8 63 13 72 13 24 56 23 69 -1z m124 -3 c12 -20 20 -73
17 -115 -1 -18 -87 -17 -94 1 -7 17 3 96 15 119 12 24 45 21 62 -5z m103 -9
c18 -35 16 -96 -3 -103 -38 -14 -54 -7 -56 27 -4 98 27 139 59 76z m181 -18
c-2 -14 -7 -25 -13 -24 -11 2 -25 59 -17 68 11 11 33 -20 30 -44z m-744 -4
c-3 -15 -10 -24 -15 -21 -11 6 -12 48 -2 58 13 12 24 -11 17 -37z m46 -12 c0
-35 -3 -43 -15 -39 -16 6 -19 33 -9 71 10 36 24 16 24 -32z m74 39 c3 -9 6
-34 6 -55 0 -38 -2 -40 -27 -37 -25 3 -28 7 -27 40 1 20 4 43 7 52 8 21 33 21
41 0z m524 -54 c-2 -27 -7 -35 -23 -35 -16 0 -21 8 -23 38 -2 21 2 45 9 54 12
13 14 13 26 -4 8 -10 13 -34 11 -53z m55 28 c5 -34 -11 -56 -25 -35 -4 7 -8
24 -8 40 0 39 27 35 33 -5z m-741 -53 c3 -13 1 -22 -3 -19 -9 5 -13 44 -5 44
2 0 6 -11 8 -25z m828 4 c0 -5 -4 -9 -10 -9 -5 0 -10 7 -10 16 0 8 5 12 10 9
6 -3 10 -10 10 -16z m-36 -33 c-3 -9 -10 -16 -15 -16 -11 0 -12 43 -2 54 10
10 24 -20 17 -38z m-754 -4 c0 -21 -2 -24 -10 -12 -13 20 -13 53 0 45 6 -3 10
-18 10 -33z m710 9 c0 -26 -10 -51 -21 -51 -10 0 -12 53 -2 63 12 13 23 7 23
-12z m-650 -31 c0 -10 -4 -21 -9 -25 -11 -6 -31 26 -31 50 0 13 4 14 20 5 11
-6 20 -19 20 -30z m590 9 c0 -11 -5 -29 -11 -40 -8 -16 -13 -18 -25 -8 -20 16
-18 57 4 62 30 8 32 7 32 -14z m-508 -12 c9 -14 -9 -47 -26 -47 -12 0 -36 40
-36 59 0 11 53 0 62 -12z m415 -45 c-21 -20 -47 -8 -47 22 0 19 6 25 28 28 32
4 43 -25 19 -50z m-327 19 c0 -53 -38 -49 -55 7 -6 19 -3 22 24 22 28 0 31 -3
31 -29z m106 11 c17 -6 20 -11 13 -29 -10 -27 -26 -29 -51 -6 -37 33 -17 51
38 35z m134 4 c0 -3 -4 -16 -10 -30 -12 -33 -55 -36 -65 -5 -5 14 -2 25 6 30
14 9 69 13 69 5z"/>
<path d="M3156 1298 c-3 -13 -10 -55 -16 -94 -11 -69 -20 -88 -69 -154 -20
-27 -21 -31 -5 -22 59 32 92 101 101 213 6 74 -1 107 -11 57z"/>
<path d="M2761 1127 c-6 -16 -11 -45 -10 -65 1 -35 2 -34 15 18 15 62 12 90
-5 47z"/>
<path d="M2366 1115 c4 -16 13 -43 20 -60 14 -30 14 -30 9 15 -3 25 -13 52
-21 60 -14 13 -15 12 -8 -15z"/>
<path d="M2471 1092 c-7 -16 -9 -41 -5 -56 12 -49 24 -38 24 23 0 34 -2 61 -4
61 -2 0 -9 -13 -15 -28z"/>
<path d="M2638 1082 c6 -67 12 -88 23 -71 15 24 10 75 -9 92 -17 16 -18 14
-14 -21z"/>
<path d="M2516 1088 c3 -13 13 -34 21 -48 13 -24 14 -23 8 15 -8 46 -12 55
-26 55 -6 0 -7 -9 -3 -22z"/>
<path d="M2586 1101 c-4 -5 -9 -31 -11 -58 l-6 -48 20 45 c11 25 20 51 20 58
1 14 -15 16 -23 3z"/>
<path d="M2914 1099 c-10 -17 29 -47 72 -55 38 -7 84 8 84 28 0 9 -3 9 -12 0
-14 -14 -68 -16 -68 -4 0 5 -12 15 -27 23 -16 7 -31 15 -35 17 -3 2 -10 -2
-14 -9z"/>
<path d="M2259 976 c20 -21 21 -27 9 -45 -16 -26 -20 -26 -55 3 -30 25 -67 46
-80 46 -4 0 18 -26 49 -57 30 -32 72 -84 92 -116 26 -42 48 -63 81 -79 24 -12
47 -19 50 -16 3 2 2 19 -1 37 -5 22 -11 30 -21 27 -25 -10 -52 13 -79 66 -21
42 -24 55 -15 74 19 44 90 24 124 -33 16 -29 23 -33 25 -20 2 10 -4 29 -13 43
-16 25 -29 32 -134 73 l-54 21 22 -24z"/>
<path d="M2835 974 c-22 -7 -53 -16 -69 -19 -38 -8 -98 -68 -90 -90 5 -13 11
-9 31 19 33 45 77 62 110 41 28 -19 29 -27 3 -50 -18 -16 -20 -16 -20 -2 0 25
-46 21 -64 -5 -21 -30 -20 -45 5 -59 18 -9 27 -7 50 10 l29 21 -12 -25 c-13
-30 -56 -45 -69 -24 -7 12 -9 12 -10 -1 -1 -8 -3 -22 -4 -30 -1 -8 -3 -21 -4
-27 0 -7 -11 -13 -23 -14 -13 0 -18 -3 -11 -5 22 -9 90 16 118 43 15 15 36 46
47 67 11 22 45 66 76 98 62 65 60 75 -4 23 -48 -40 -59 -42 -73 -17 -7 13 -4
23 11 40 12 12 20 21 17 21 -2 -1 -22 -8 -44 -15z m-57 -141 c-5 -25 -28 -28
-28 -4 0 12 6 21 16 21 9 0 14 -7 12 -17z"/>
<path d="M2475 950 c-6 -10 7 -31 67 -104 l24 -28 42 54 c43 56 53 88 28 88
-8 0 -28 -28 -45 -61 -24 -49 -32 -58 -37 -43 -10 28 -58 104 -66 104 -4 0
-10 -5 -13 -10z"/>
<path d="M2540 945 c-7 -9 -8 -15 0 -20 5 -3 10 -15 10 -26 0 -10 4 -19 9 -19
8 0 21 33 21 56 0 18 -27 24 -40 9z"/>
<path d="M2326 884 c-9 -8 -16 -22 -16 -29 0 -18 23 -32 28 -17 5 17 32 15 32
-2 0 -8 -6 -17 -12 -19 -7 -3 1 -8 19 -12 26 -6 35 -16 50 -51 21 -51 36 -59
21 -11 -21 64 -28 77 -39 75 -7 -2 -16 12 -21 29 -11 42 -40 59 -62 37z"/>
<path d="M2694 774 c-21 -49 -13 -51 14 -3 12 21 18 39 12 39 -6 0 -18 -16
-26 -36z"/>
<path d="M2620 766 c0 -2 7 -9 15 -16 13 -11 14 -10 9 4 -5 14 -24 23 -24 12z"/>
<path d="M2253 1942 c-56 -27 -67 -42 -33 -42 34 0 88 27 100 49 15 28 -1 27
-67 -7z"/>
<path d="M2690 1915 c0 -39 27 -115 41 -115 5 0 9 4 9 9 0 15 -41 141 -45 141
-3 0 -5 -16 -5 -35z"/>
<path d="M2330 1914 c-25 -14 -103 -40 -175 -57 -82 -20 -120 -33 -102 -35 15
-2 56 5 90 16 34 11 94 30 132 41 39 12 81 31 95 41 36 28 13 24 -40 -6z"/>
<path d="M2398 1884 c-23 -79 -22 -98 3 -51 12 24 19 52 17 75 -3 36 -3 36
-20 -24z"/>
<path d="M2745 1930 c22 -36 345 -138 345 -109 0 4 -50 19 -110 33 -61 14
-137 40 -170 56 -64 32 -75 36 -65 20z"/>
<path d="M1995 1880 l-70 -6 65 -2 c36 0 74 3 85 8 22 9 22 9 -80 0z"/>
<path d="M1757 1873 c-4 -3 -7 -15 -7 -25 0 -15 5 -17 28 -12 42 10 47 16 27
31 -21 14 -38 17 -48 6z"/>
<path d="M3318 1864 c-16 -8 -28 -19 -28 -25 0 -6 8 -5 22 2 18 10 24 8 35 -7
16 -22 16 -29 0 -43 -11 -8 -18 -6 -31 8 -14 16 -23 17 -58 10 -28 -7 -44 -6
-54 2 -8 7 -17 9 -21 5 -4 -3 2 -12 12 -20 20 -15 13 -36 -13 -36 -42 -1 37
-29 82 -30 40 0 54 5 83 30 32 29 58 40 51 21 -1 -4 -25 -27 -51 -50 -54 -46
-91 -52 -154 -26 -45 19 -55 12 -14 -10 41 -21 109 -22 147 -2 75 39 123 126
67 120 -20 -2 -21 0 -13 23 17 45 -9 57 -62 28z m-30 -87 c2 -10 -3 -17 -12
-17 -18 0 -29 16 -21 31 9 14 29 6 33 -14z"/>
<path d="M2078 1794 c-27 -8 -48 -16 -48 -18 0 -2 42 -3 93 -2 73 1 99 -3 120
-16 14 -10 29 -18 32 -18 13 0 3 23 -20 45 -20 21 -34 25 -77 24 -29 0 -74 -7
-100 -15z"/>
<path d="M2866 1787 c-14 -14 -26 -33 -26 -42 0 -13 6 -11 31 7 27 20 42 23
135 23 99 0 103 1 72 14 -18 8 -68 16 -110 19 -72 4 -78 3 -102 -21z"/>
<path d="M1735 1755 c44 -71 101 -93 179 -71 29 9 59 23 66 31 11 13 3 12 -39
-4 -28 -12 -64 -21 -79 -21 -28 1 -79 24 -74 34 1 3 -1 6 -4 5 -3 -1 -20 12
-37 28 l-31 28 19 -30z"/>
<path d="M2108 1728 c53 -12 117 -71 127 -118 10 -44 30 -23 21 23 -11 60 -78
108 -148 106 l-43 -1 43 -10z"/>
<path d="M2327 1598 c-3 -22 -19 -67 -35 -100 l-29 -59 34 32 c33 33 53 81 53
131 0 44 -17 41 -23 -4z"/>
<path d="M2740 1600 c-7 -25 -8 -59 -4 -84 8 -39 8 -37 16 38 4 44 6 82 3 84
-2 2 -9 -15 -15 -38z"/>
<path d="M2580 1543 c0 -29 5 -53 10 -53 13 0 13 70 0 90 -7 11 -10 0 -10 -37z"/>
<path d="M2620 1580 c8 -5 26 -9 40 -9 l25 1 -25 8 c-14 4 -32 8 -40 9 -13 1
-13 0 0 -9z"/>
<path d="M2396 1545 c-3 -9 -6 -29 -5 -43 1 -22 3 -19 10 12 10 40 6 60 -5 31z"/>
<path d="M2780 1480 c0 -8 5 -22 10 -30 9 -13 10 -13 10 0 0 8 -5 22 -10 30
-9 13 -10 13 -10 0z"/>
<path d="M3920 1092 c0 -10 43 -52 53 -52 16 0 5 20 -23 40 -16 12 -30 17 -30
12z"/>
</g>
</svg>